<?xml version="1.0" encoding="utf-8"?>
<!-- Generator: Adobe Illustrator 26.0.2, SVG Export Plug-In . SVG Version: 6.00 Build 0)  -->
<svg version="1.1" id="Layer_32" xmlns="http://www.w3.org/2000/svg" xmlns:xlink="http://www.w3.org/1999/xlink" x="0px" y="0px"
	 viewBox="0 0 64 64" style="enable-background:new 0 0 64 64;" xml:space="preserve">
<g>
	<path style="fill:#939393;" d="M50,44H6c-2.209,0-4-1.791-4-4V6c0-2.209,1.791-4,4-4h44c2.209,0,4,1.791,4,4v34
		C54,42.209,52.209,44,50,44z"/>
	<rect x="6" y="6" style="fill:#BCE4F8;" width="44" height="30"/>
	<path style="fill:#E4F5FD;" d="M6,6v26h34c3.314,0,6-2.686,6-6V6H6z"/>
	<path style="fill:#FFFFFF;" d="M32,26H13c-2.209,0-4-1.791-4-4v-8c0-2.209,1.791-4,4-4h19c2.209,0,4,1.791,4,4v8
		C36,24.209,34.209,26,32,26z"/>
	<rect x="14" y="12" style="fill:#2763BB;" width="28" height="16"/>
	<path style="fill:#3079E6;" d="M14,12v13h21c2.209,0,4-1.791,4-4v-9H14z"/>
	<path style="fill:#73A4EA;" d="M29,22h-9c-1.657,0-3-1.343-3-3v-1c0-1.657,1.343-3,3-3h9c1.657,0,3,1.343,3,3v1
		C32,20.657,30.657,22,29,22z"/>
	<g>
		<path style="fill:#CCCCCC;" d="M43,38h-2v-1c0-0.551-0.448-1-1-1h-0.5c-1.379,0-2.5-1.122-2.5-2.5s1.121-2.5,2.5-2.5H42
			c1.103,0,2-0.897,2-2v-1h2v1c0,2.206-1.794,4-4,4h-2.5c-0.275,0-0.5,0.224-0.5,0.5s0.225,0.5,0.5,0.5H40c1.654,0,3,1.346,3,3V38z"
			/>
	</g>
	<g>
		<path style="fill:#FFFFFF;" d="M23.293,23.707l-3-3c-0.391-0.391-0.391-1.023,0-1.414l3-3l1.414,1.414L22.414,20l2.293,2.293
			L23.293,23.707z"/>
	</g>
	<g>
		<path style="fill:#FFFFFF;" d="M32.707,23.707l-1.414-1.414L33.586,20l-2.293-2.293l1.414-1.414l3,3
			c0.391,0.391,0.391,1.023,0,1.414L32.707,23.707z"/>
	</g>
	<g>
		
			<rect x="23.757" y="18.5" transform="matrix(0.3165 -0.9486 0.9486 0.3165 0.9817 40.3625)" style="fill:#FFFFFF;" width="9.487" height="1.999"/>
	</g>
	<path style="fill:#CCCCCC;" d="M61.921,54.385l-1.924-10.45C59.469,40.521,56.517,38,53.046,38H30.954
		c-3.471,0-6.423,2.521-6.951,5.936l-1.924,10.45C21.46,58.389,24.572,62,28.642,62h0c2.624,0,5.003-1.538,6.068-3.925l0.226-0.506
		C36.177,54.791,38.945,53,42,53h0c3.055,0,5.823,1.791,7.064,4.569l0.226,0.506C50.355,60.462,52.733,62,55.358,62h0
		C59.428,62,62.54,58.389,61.921,54.385z"/>
	<path style="fill:#939393;" d="M22.079,54.385L22.518,52H18c-2.209,0-4,1.791-4,4h8.033C21.985,55.474,21.994,54.934,22.079,54.385
		z"/>
	<polygon style="fill:#686868;" points="23.991,44 21,44 19,52 22.518,52 	"/>
	<path style="fill:#CCCCCC;" d="M30.954,38H35v-2c0-1.105-0.895-2-2-2h-2c-1.105,0-2,0.895-2,2v2.277
		C29.623,38.098,30.278,38,30.954,38z"/>
	<path style="fill:#F2F2F2;" d="M57,39.217C55.867,38.449,54.504,38,53.046,38H30.954c-3.471,0-6.423,2.521-6.951,5.936
		l-1.924,10.45c-0.085,0.549-0.094,1.089-0.045,1.615h13.865c1.443-1.858,3.675-3,6.102-3s4.659,1.142,6.102,3H51
		c3.314,0,6-2.686,6-6V39.217z"/>
	<path style="fill:#FFFFFF;" d="M45,52H31c-1.657,0-3-1.343-3-3v-5c0-1.657,1.343-3,3-3h14c1.657,0,3,1.343,3,3v5
		C48,50.657,46.657,52,45,52z"/>
	<path style="fill:#CCCCCC;" d="M53.046,38c0.676,0,1.331,0.098,1.954,0.277V36c0-1.105-0.895-2-2-2h-2c-1.105,0-2,0.895-2,2v2
		H53.046z"/>
	<circle style="fill:#559B38;" cx="51" cy="51" r="2"/>
	<path style="fill:#6BC148;" d="M51,49c-1.105,0-2,0.895-2,2c0,0.366,0.106,0.705,0.277,1H50c1.105,0,2-0.895,2-2v-0.723
		C51.705,49.106,51.366,49,51,49z"/>
	<circle style="fill:#2763BB;" cx="47" cy="47" r="2"/>
	<path style="fill:#3079E6;" d="M47,45c-1.105,0-2,0.895-2,2c0,0.366,0.106,0.705,0.277,1H46c1.105,0,2-0.895,2-2v-0.723
		C47.705,45.106,47.366,45,47,45z"/>
	<circle style="fill:#F3A845;" cx="55" cy="47" r="2"/>
	<path style="fill:#EECC61;" d="M55,45c-1.105,0-2,0.895-2,2c0,0.366,0.106,0.705,0.277,1H54c1.105,0,2-0.895,2-2v-0.723
		C55.705,45.106,55.366,45,55,45z"/>
	<polygon style="fill:#2763BB;" points="38,45 35,45 35,42 31,42 31,45 28,45 28,49 31,49 31,52 35,52 35,49 38,49 	"/>
	<circle style="fill:#AA2B24;" cx="51" cy="43" r="2"/>
	<path style="fill:#3079E6;" d="M35,45v-3h-4v3h-3v4h3v1h2c0.772,0,1.468-0.3,2-0.779V49h0.221C35.7,48.468,36,47.772,36,47v-2H35z"
		/>
	<path style="fill:#D24034;" d="M51,41c-1.105,0-2,0.895-2,2c0,0.366,0.106,0.705,0.277,1H50c1.105,0,2-0.895,2-2v-0.723
		C51.705,41.106,51.366,41,51,41z"/>
</g>
</svg>
